<svg width="20" height="18" viewBox="0 0 338 312" fill="none" xmlns="http://www.w3.org/2000/svg">
<path d="M45.25 123.062V289C45.25 291.984 46.4353 294.845 48.5451 296.955C50.6548 299.065 53.5163 300.25 56.5 300.25H124V204.625C124 200.149 125.778 195.857 128.943 192.693C132.107 189.528 136.399 187.75 140.875 187.75H197.125C201.601 187.75 205.893 189.528 209.057 192.693C212.222 195.857 214 200.149 214 204.625V300.25H281.5C284.484 300.25 287.345 299.065 289.455 296.955C291.565 294.845 292.75 291.984 292.75 289V123.062" stroke="white" stroke-width="23.4084" stroke-linecap="round" stroke-linejoin="round"/>
<path d="M326.253 154L176.645 15.2796C173.135 11.6892 164.928 11.6484 161.355 15.2796L11.7473 154" stroke="white" stroke-width="23.4084" stroke-linecap="round" stroke-linejoin="round"/>
<path d="M270.25 99.8594V19H236.5V67.5156" stroke="white" stroke-width="23.4084" stroke-linecap="round" stroke-linejoin="round"/>
</svg>
