<?xml version="1.0" encoding="utf-8"?>
<!-- Generator: Adobe Illustrator 16.0.0, SVG Export Plug-In . SVG Version: 6.00 Build 0)  -->
<!DOCTYPE svg PUBLIC "-//W3C//DTD SVG 1.1//EN" "http://www.w3.org/Graphics/SVG/1.1/DTD/svg11.dtd">
<svg version="1.1" id="Layer_1" xmlns="http://www.w3.org/2000/svg" xmlns:xlink="http://www.w3.org/1999/xlink" x="0px" y="0px"
	 width="240px" height="22px" viewBox="0 0 240 22" enable-background="new 0 0 240 22" xml:space="preserve">
<g>
	<path fill="#FFFFFF" d="M2.54,4.627C2.658,4.642,2.764,4.67,2.858,4.713c0.095,0.045,0.183,0.104,0.271,0.184
		c0.087,0.079,0.185,0.185,0.296,0.318l8.172,10.335c-0.031-0.329-0.055-0.649-0.069-0.961c-0.016-0.312-0.023-0.604-0.023-0.88
		V4.601h3.52v17.21h-2.08c-0.306,0-0.566-0.047-0.778-0.139c-0.213-0.1-0.417-0.271-0.615-0.523L3.437,10.896
		c0.023,0.298,0.044,0.594,0.058,0.883c0.017,0.285,0.024,0.555,0.024,0.807v9.225H0V4.601h2.103
		C2.276,4.601,2.422,4.611,2.54,4.627z M34.843,13.199c0,1.246-0.216,2.403-0.644,3.473c-0.431,1.07-1.035,2.002-1.813,2.796
		c-0.779,0.79-1.719,1.409-2.818,1.858C28.471,21.773,27.252,22,25.913,22c-1.339,0-2.558-0.227-3.661-0.674
		c-1.103-0.449-2.045-1.068-2.829-1.858c-0.782-0.794-1.389-1.726-1.819-2.794c-0.429-1.071-0.643-2.229-0.643-3.475
		c0-1.243,0.214-2.4,0.643-3.473c0.43-1.069,1.037-2,1.819-2.787c0.784-0.786,1.726-1.405,2.829-1.853
		c1.103-0.45,2.321-0.673,3.661-0.673c1.34,0,2.558,0.226,3.656,0.679c1.099,0.451,2.039,1.071,2.818,1.861
		c0.778,0.786,1.382,1.714,1.813,2.786C34.627,10.81,34.843,11.963,34.843,13.199z M30.756,13.199c0-0.85-0.112-1.617-0.331-2.297
		c-0.222-0.681-0.537-1.257-0.951-1.73c-0.412-0.473-0.919-0.832-1.517-1.085c-0.599-0.252-1.28-0.377-2.044-0.377
		c-0.771,0-1.458,0.126-2.062,0.377c-0.602,0.253-1.109,0.613-1.521,1.085c-0.415,0.474-0.733,1.049-0.952,1.73
		c-0.221,0.681-0.332,1.448-0.332,2.297c0,0.859,0.11,1.629,0.332,2.31c0.219,0.681,0.537,1.26,0.952,1.729
		c0.412,0.473,0.92,0.832,1.521,1.082c0.604,0.248,1.291,0.373,2.062,0.373c0.765,0,1.445-0.125,2.044-0.373
		c0.598-0.25,1.105-0.609,1.517-1.082c0.414-0.471,0.729-1.049,0.951-1.729C30.644,14.828,30.756,14.059,30.756,13.199z
		 M48.542,4.601v3.165h-4.84v14.045h-3.995V7.766h-4.841V4.601H48.542z M57.625,0.572l-3.483,2.53
		c-0.206,0.157-0.396,0.26-0.574,0.314C53.391,3.464,53.17,3.49,52.901,3.49h-2.905l2.138-2.326c0.103-0.118,0.201-0.213,0.3-0.288
		c0.098-0.078,0.204-0.137,0.314-0.186c0.108-0.045,0.231-0.077,0.365-0.092c0.134-0.016,0.29-0.026,0.472-0.026H57.625z
		 M54.566,21.811h-4.015V4.601h4.015V21.811z M69.319,17.357c0.095,0,0.188,0.018,0.284,0.055c0.093,0.035,0.183,0.097,0.271,0.18
		l1.582,1.668c-0.692,0.904-1.562,1.59-2.605,2.049C67.809,21.77,66.575,22,65.149,22c-1.309,0-2.478-0.221-3.513-0.668
		c-1.036-0.445-1.914-1.061-2.633-1.841c-0.723-0.784-1.275-1.715-1.661-2.79c-0.385-1.074-0.578-2.242-0.578-3.502
		c0-1.281,0.221-2.461,0.661-3.536c0.442-1.076,1.057-2.004,1.848-2.783c0.792-0.778,1.737-1.386,2.841-1.819
		c1.103-0.433,2.32-0.648,3.65-0.648c0.645,0,1.253,0.056,1.825,0.172c0.571,0.113,1.103,0.27,1.599,0.471
		c0.499,0.2,0.953,0.442,1.372,0.723c0.417,0.277,0.786,0.586,1.109,0.925l-1.347,1.807c-0.085,0.11-0.188,0.211-0.307,0.301
		c-0.117,0.092-0.285,0.136-0.495,0.136c-0.142,0-0.275-0.031-0.401-0.095c-0.127-0.061-0.259-0.138-0.401-0.232
		c-0.144-0.087-0.298-0.187-0.466-0.292c-0.169-0.105-0.371-0.206-0.603-0.296c-0.232-0.09-0.503-0.167-0.814-0.23
		c-0.312-0.062-0.676-0.093-1.093-0.093c-0.725,0-1.387,0.125-1.986,0.383c-0.598,0.255-1.112,0.623-1.54,1.098
		c-0.431,0.478-0.765,1.054-1.004,1.733c-0.242,0.676-0.361,1.435-0.361,2.276c0,0.883,0.12,1.666,0.361,2.351
		c0.239,0.687,0.565,1.262,0.979,1.73c0.414,0.471,0.896,0.825,1.447,1.069c0.55,0.244,1.141,0.367,1.771,0.367
		c0.363,0,0.694-0.018,0.993-0.053c0.297-0.037,0.576-0.1,0.833-0.184c0.256-0.088,0.499-0.197,0.732-0.336
		c0.231-0.14,0.467-0.312,0.703-0.516c0.094-0.079,0.197-0.144,0.306-0.193C69.085,17.383,69.201,17.357,69.319,17.357z
		 M77.646,21.811H73.63V4.601h4.015V21.811z M96.851,21.811h-3.095c-0.346,0-0.631-0.081-0.857-0.242
		c-0.224-0.163-0.379-0.367-0.466-0.62l-1.016-3h-6.543l-1.016,3c-0.079,0.222-0.233,0.421-0.46,0.597
		c-0.228,0.178-0.508,0.266-0.839,0.266h-3.119l6.662-17.21h4.086L96.851,21.811z M85.795,15.232h4.701l-1.583-4.713
		c-0.103-0.298-0.221-0.653-0.359-1.057c-0.139-0.406-0.273-0.846-0.408-1.317c-0.125,0.479-0.257,0.925-0.389,1.334
		c-0.137,0.408-0.26,0.764-0.378,1.062L85.795,15.232z M107.835,8.097c-0.118,0.19-0.243,0.332-0.372,0.427
		c-0.129,0.092-0.295,0.141-0.502,0.141c-0.182,0-0.376-0.059-0.585-0.172c-0.208-0.113-0.444-0.242-0.709-0.383
		c-0.263-0.144-0.564-0.27-0.903-0.385c-0.336-0.113-0.724-0.17-1.156-0.17c-0.749,0-1.307,0.16-1.671,0.478
		c-0.367,0.32-0.549,0.749-0.549,1.293c0,0.347,0.11,0.635,0.329,0.864c0.221,0.227,0.511,0.424,0.87,0.588
		c0.359,0.165,0.768,0.319,1.229,0.456c0.46,0.139,0.931,0.294,1.41,0.46c0.481,0.17,0.953,0.371,1.413,0.598
		c0.459,0.229,0.871,0.521,1.228,0.873c0.36,0.355,0.648,0.787,0.87,1.293c0.221,0.51,0.33,1.122,0.33,1.838
		c0,0.795-0.138,1.537-0.413,2.231c-0.275,0.694-0.676,1.298-1.199,1.812c-0.525,0.518-1.171,0.924-1.938,1.221
		c-0.767,0.295-1.64,0.441-2.617,0.441c-0.536,0-1.08-0.058-1.635-0.164c-0.556-0.11-1.093-0.268-1.612-0.467
		c-0.521-0.203-1.008-0.441-1.466-0.717c-0.455-0.273-0.854-0.58-1.193-0.92l1.182-1.865c0.086-0.143,0.208-0.258,0.366-0.343
		c0.157-0.087,0.327-0.13,0.507-0.13c0.236,0,0.476,0.073,0.715,0.221c0.241,0.154,0.514,0.318,0.814,0.496
		c0.304,0.184,0.654,0.349,1.047,0.496c0.394,0.153,0.859,0.225,1.394,0.225c0.725,0,1.287-0.158,1.689-0.477
		c0.4-0.317,0.603-0.823,0.603-1.518c0-0.4-0.11-0.729-0.332-0.979c-0.22-0.253-0.508-0.461-0.868-0.627
		c-0.358-0.166-0.764-0.312-1.223-0.439c-0.456-0.125-0.924-0.264-1.404-0.418c-0.481-0.154-0.948-0.342-1.407-0.566
		c-0.456-0.223-0.864-0.521-1.222-0.887c-0.36-0.367-0.646-0.822-0.869-1.369c-0.221-0.548-0.331-1.224-0.331-2.026
		c0-0.646,0.131-1.276,0.39-1.89c0.26-0.615,0.642-1.162,1.147-1.642c0.502-0.481,1.12-0.861,1.854-1.152
		c0.732-0.286,1.57-0.429,2.514-0.429c0.53,0,1.042,0.041,1.543,0.124c0.499,0.082,0.974,0.203,1.422,0.365
		c0.448,0.162,0.871,0.354,1.258,0.579c0.39,0.226,0.738,0.48,1.046,0.764L107.835,8.097z"/>
	<path opacity="0.8" fill="#FFFFFF" d="M124.689,21.811h-0.934c-0.109,0-0.199-0.029-0.271-0.088
		c-0.07-0.06-0.125-0.137-0.164-0.231l-1.973-4.854h-8.208l-1.961,4.854c-0.031,0.087-0.087,0.161-0.165,0.226
		c-0.08,0.062-0.175,0.094-0.286,0.094h-0.92l6.838-16.713h1.206L124.689,21.811z M113.505,15.736h7.487l-3.412-8.441
		c-0.056-0.134-0.112-0.285-0.167-0.455c-0.054-0.17-0.109-0.35-0.167-0.537c-0.053,0.188-0.109,0.367-0.162,0.537
		c-0.056,0.169-0.112,0.324-0.167,0.465L113.505,15.736z M141.887,13.449c0,1.291-0.193,2.463-0.578,3.512
		c-0.387,1.052-0.93,1.949-1.631,2.695c-0.699,0.745-1.541,1.318-2.516,1.721c-0.977,0.406-2.061,0.612-3.248,0.612
		c-1.174,0-2.248-0.206-3.225-0.612c-0.977-0.402-1.814-0.976-2.516-1.721c-0.699-0.746-1.246-1.644-1.637-2.695
		c-0.389-1.049-0.584-2.221-0.584-3.512c0-1.285,0.195-2.449,0.584-3.503c0.391-1.052,0.938-1.949,1.637-2.692
		c0.701-0.746,1.539-1.321,2.516-1.732c0.977-0.409,2.051-0.612,3.225-0.612c1.188,0,2.271,0.203,3.248,0.607
		c0.975,0.406,1.816,0.984,2.516,1.73c0.701,0.75,1.244,1.647,1.631,2.699C141.693,11,141.887,12.164,141.887,13.449z
		 M140.635,13.449c0-1.167-0.162-2.213-0.484-3.141c-0.324-0.931-0.777-1.718-1.365-2.363c-0.586-0.646-1.293-1.141-2.121-1.484
		c-0.824-0.342-1.744-0.514-2.75-0.514c-0.992,0-1.898,0.172-2.723,0.514c-0.822,0.343-1.529,0.838-2.127,1.484
		c-0.594,0.645-1.053,1.432-1.381,2.363c-0.326,0.927-0.49,1.974-0.49,3.141c0,1.173,0.164,2.221,0.49,3.146
		c0.328,0.926,0.787,1.711,1.381,2.354c0.598,0.647,1.305,1.14,2.127,1.479c0.824,0.339,1.73,0.51,2.723,0.51
		c1.006,0,1.926-0.171,2.75-0.51c0.828-0.339,1.535-0.831,2.121-1.479c0.588-0.644,1.041-1.429,1.365-2.354
		C140.473,15.67,140.635,14.622,140.635,13.449z"/>
	<path fill="#FFFFFF" d="M154.012,14.877c0.143,0.322,0.285,0.655,0.418,0.994c0.133-0.351,0.275-0.684,0.424-1.013
		c0.15-0.327,0.305-0.646,0.463-0.95l4.416-8.703c0.08-0.152,0.16-0.267,0.242-0.35s0.176-0.144,0.277-0.183
		c0.102-0.04,0.217-0.058,0.35-0.058c0.129,0,0.281,0,0.455,0h3.045v17.196h-3.52v-9.898c0-0.479,0.025-1,0.072-1.559l-4.561,8.848
		c-0.141,0.276-0.332,0.482-0.572,0.623c-0.24,0.145-0.512,0.213-0.82,0.213h-0.543c-0.307,0-0.582-0.068-0.82-0.213
		c-0.242-0.141-0.434-0.347-0.574-0.623l-4.584-8.86c0.033,0.278,0.055,0.55,0.072,0.821c0.016,0.271,0.023,0.521,0.023,0.75v9.898
		h-3.52V4.614h3.049c0.172,0,0.326,0,0.453,0c0.131,0,0.246,0.018,0.348,0.058c0.102,0.039,0.195,0.101,0.279,0.183
		c0.082,0.083,0.162,0.198,0.242,0.35l4.428,8.738C153.713,14.244,153.865,14.552,154.012,14.877z M171.307,21.811h-4.016V4.601
		l4.016,0V21.811z M177.037,4.627c0.117,0.015,0.223,0.043,0.318,0.086c0.094,0.044,0.186,0.104,0.273,0.183
		c0.084,0.077,0.186,0.185,0.293,0.318l8.174,10.335c-0.033-0.329-0.057-0.649-0.072-0.961s-0.021-0.604-0.021-0.88V4.6h3.518v17.21
		h-2.076c-0.309,0-0.568-0.047-0.779-0.139c-0.213-0.1-0.42-0.271-0.615-0.523l-8.115-10.252c0.023,0.298,0.043,0.594,0.059,0.882
		c0.016,0.285,0.023,0.556,0.023,0.807v9.226h-3.52V4.6h2.104C176.771,4.6,176.918,4.609,177.037,4.627z M199.512,18.658
		c0.537,0,1.016-0.09,1.436-0.268c0.422-0.178,0.777-0.43,1.07-0.762c0.291-0.33,0.514-0.732,0.666-1.209
		c0.156-0.477,0.232-1.02,0.232-1.627V4.6h3.992v10.193c0,1.058-0.172,2.027-0.514,2.908c-0.342,0.879-0.834,1.641-1.471,2.278
		c-0.639,0.64-1.414,1.134-2.326,1.488c-0.914,0.354-1.941,0.532-3.086,0.532c-1.146,0-2.18-0.178-3.092-0.532
		c-0.914-0.354-1.691-0.849-2.326-1.488c-0.641-0.638-1.127-1.399-1.467-2.278c-0.338-0.881-0.508-1.851-0.508-2.908V4.6h3.992
		v10.183c0,0.607,0.078,1.148,0.23,1.625c0.156,0.475,0.377,0.883,0.668,1.217s0.646,0.588,1.068,0.766
		S198.979,18.658,199.512,18.658z M222.002,4.6v3.166h-4.842v14.045h-3.992V7.766h-4.842V4.6H222.002z M231.074,4.051
		c-4.92,0-8.922,4.002-8.922,8.922c0,4.922,4.002,8.927,8.922,8.927c4.924,0,8.926-4.005,8.926-8.927
		C240,8.053,235.998,4.051,231.074,4.051z M231.074,18.414c-3,0-5.439-2.438-5.439-5.441c0-2.999,2.439-5.443,5.439-5.443
		c3.002,0,5.441,2.444,5.441,5.443C236.516,15.977,234.076,18.414,231.074,18.414z M234.047,13.479h-2.924V9.886
		c0-0.435-0.348-0.782-0.779-0.782s-0.781,0.347-0.781,0.782v4.383c0,0.424,0.346,0.769,0.77,0.769h3.715
		c0.43,0,0.779-0.349,0.779-0.778C234.826,13.826,234.477,13.479,234.047,13.479z"/>
</g>
</svg>
