<svg width="21" height="18" viewBox="0 0 368 310" fill="none" xmlns="http://www.w3.org/2000/svg">
<path d="M270.418 108.192C270.342 113.98 265.452 118.803 259.675 118.784C253.755 118.765 248.837 113.684 249.009 107.763C249.18 101.975 254.146 97.2477 259.933 97.3623C265.739 97.4769 270.494 102.395 270.428 108.192H270.418Z" fill="white"/>
<mask id="path-2-outside-1_46_68" maskUnits="userSpaceOnUse" x="-0.0441895" y="0" width="369" height="310" fill="white">
<rect fill="white" x="-0.0441895" width="369" height="310"/>
<path d="M0.955811 69.4754C1.8057 66.1615 2.53145 62.8189 3.53412 59.5527C5.8737 51.9125 9.90351 45.2273 15.3371 39.3825C20.1977 34.1585 26.8535 33.4613 31.4754 37.6826C36.1164 41.9133 35.9922 48.5126 31.1698 53.8894C16.8745 69.8193 20.656 93.886 39.048 104.047C39.5637 104.334 40.1175 104.554 40.9961 104.955C41.4926 104.047 41.9987 103.178 42.4475 102.271C62.7589 61.0807 95.599 37.014 141.054 30.3575C146.449 29.5648 151.978 29.5171 157.45 29.4789C175.918 29.3738 194.377 29.3738 212.845 29.4789C218.078 29.5075 223.321 29.8322 228.516 30.4339C230.741 30.6917 231.887 30.1569 233.214 28.4379C247.805 9.42327 267.21 0.178597 291.102 1.05722C297.424 1.28643 303.793 2.95773 309.933 4.69588C316.761 6.63459 319.444 12.6513 317.028 19.4129C311.939 33.6332 306.782 47.8345 301.53 61.988C300.718 64.1655 300.88 65.5025 302.599 67.2311C311.642 76.3421 319.091 86.6468 324.754 98.1645C325.804 100.294 326.998 101.01 329.376 101.001C335.315 100.982 341.36 100.676 347.166 101.679C358.491 103.618 366.761 113.684 366.866 125.201C367.038 144.741 367.067 164.281 366.866 183.821C366.732 197.067 355.913 207.716 342.63 208.107C337.989 208.241 333.329 208.002 328.698 208.251C327.494 208.317 325.795 209.301 325.26 210.342C316.274 227.934 303.994 242.718 288.266 254.684C287.215 255.486 286.385 257.119 286.203 258.456C284.427 271.674 282.832 284.911 281.142 298.138C280.34 304.422 276.205 308.185 269.797 308.213C255.98 308.28 242.162 308.28 228.344 308.213C221.755 308.185 217.639 304.422 216.808 297.937C216.025 291.806 215.242 285.665 214.431 279.276H154.9C154.108 285.379 153.296 291.481 152.542 297.584C151.692 304.403 147.71 308.175 140.968 308.204C127.15 308.271 113.332 308.271 99.5142 308.204C93.1353 308.175 88.9718 304.384 88.1696 298.119C86.489 284.892 84.8942 271.655 83.0989 258.447C82.908 257.014 81.9148 255.333 80.7689 254.445C54.5465 234.17 38.4655 207.754 32.6977 175.14C30.0144 159.974 30.3677 144.789 33.5094 129.69C33.7768 128.42 33.9678 127.13 34.216 125.679C33.3184 125.22 32.4972 124.8 31.6664 124.38C14.936 115.899 4.72779 102.548 1.58606 83.9441C1.49057 83.3902 1.17544 82.8745 0.955811 82.3397C0.955811 78.0516 0.955811 73.7635 0.955811 69.4754ZM293.06 22.5836C291.188 22.469 290.013 22.3162 288.839 22.3353C270.561 22.5167 256.6 30.3193 247.252 46.1059C243.499 52.4568 239.994 53.9276 232.756 52.8675C226.062 51.8934 219.282 51.0625 212.53 50.9765C194.071 50.7187 175.603 50.9288 157.144 50.8715C145.255 50.8428 133.72 52.7433 122.423 56.5062C76.3476 71.863 46.3437 120.092 53.3051 168.082C57.6596 198.146 72.2605 222.108 97.146 239.614C101.405 242.613 103.449 246.289 103.983 251.427C105.215 263.126 106.848 274.778 108.338 286.544H132.316C132.708 283.354 133.061 280.403 133.433 277.452C133.806 274.501 134.245 271.559 134.589 268.599C135.42 261.398 139.402 257.606 146.592 257.587C171.965 257.53 197.337 257.53 222.71 257.587C229.91 257.606 233.883 261.398 234.732 268.58C235.449 274.568 236.26 280.556 237.034 286.601H260.983C262.483 274.539 264.02 262.639 265.424 250.73C265.901 246.643 267.143 243.138 270.733 240.712C288.189 228.927 300.966 213.312 309.083 193.868C311.146 188.93 314.918 186.61 320.294 186.676C326.96 186.762 333.635 186.715 340.31 186.686C344.33 186.667 345.466 185.578 345.466 181.653C345.485 163.546 345.485 145.438 345.466 127.331C345.466 123.425 344.33 122.374 340.271 122.355C333.72 122.327 327.17 122.279 320.619 122.374C314.975 122.46 311.117 120.044 308.911 114.801C302.762 100.199 293.804 87.5637 281.915 77.0775C277.265 72.9804 276.32 68.2912 278.468 62.6183C281.495 54.6152 284.379 46.5452 287.301 38.5039C289.163 33.3945 290.987 28.2755 293.05 22.5549L293.06 22.5836Z"/>
<path d="M159.274 148.112C160.339 148.112 160.996 148.112 161.653 148.112C168.691 148.112 175.729 148.093 182.768 148.122C186.338 148.136 188.794 150.068 189.188 153.044C189.699 156.892 187.102 159.732 182.948 159.747C174.635 159.781 166.322 159.757 158.009 159.757C157.294 159.757 156.575 159.757 155.684 159.757V166.581C156.463 166.615 157.163 166.674 157.859 166.674C166.171 166.678 174.484 166.659 182.797 166.688C186.275 166.698 188.707 168.556 189.179 171.445C189.801 175.268 187.213 178.274 183.128 178.308C176.576 178.367 170.024 178.323 163.472 178.328C162.207 178.328 160.938 178.328 159.313 178.328C159.761 179.169 160.047 179.792 160.407 180.371C170.744 197.06 193.294 200.863 208.596 188.533C209.569 187.75 210.663 186.962 211.831 186.611C214.506 185.809 217.201 187.093 218.451 189.486C219.73 191.943 219.161 194.803 216.928 196.719C211.106 201.71 204.452 205.071 196.912 206.54C175.627 210.679 155.524 199.822 147.109 179.661C146.691 178.654 146.209 178.265 145.12 178.304C142.94 178.381 140.752 178.352 138.568 178.318C134.783 178.265 132.278 175.92 132.288 172.496C132.298 169.067 134.788 166.766 138.607 166.693C140.348 166.659 142.089 166.688 143.899 166.688V159.684C141.593 159.684 139.356 159.849 137.147 159.64C134.555 159.397 132.58 157.198 132.327 154.698C132.05 151.926 133.402 149.547 135.922 148.613C136.753 148.307 137.692 148.205 138.587 148.18C140.708 148.122 142.833 148.107 144.954 148.18C146.063 148.219 146.632 147.913 147.109 146.804C153.437 131.993 164.488 122.775 180.316 119.803C193.07 117.41 204.749 120.401 215.104 128.291C217.959 130.47 218.509 133.977 216.529 136.633C214.52 139.328 210.96 139.683 207.983 137.484C192.228 125.864 170.953 129.619 160.578 145.86C160.193 146.463 159.863 147.096 159.274 148.112Z"/>
</mask>
<path d="M0.955811 69.4754C1.8057 66.1615 2.53145 62.8189 3.53412 59.5527C5.8737 51.9125 9.90351 45.2273 15.3371 39.3825C20.1977 34.1585 26.8535 33.4613 31.4754 37.6826C36.1164 41.9133 35.9922 48.5126 31.1698 53.8894C16.8745 69.8193 20.656 93.886 39.048 104.047C39.5637 104.334 40.1175 104.554 40.9961 104.955C41.4926 104.047 41.9987 103.178 42.4475 102.271C62.7589 61.0807 95.599 37.014 141.054 30.3575C146.449 29.5648 151.978 29.5171 157.45 29.4789C175.918 29.3738 194.377 29.3738 212.845 29.4789C218.078 29.5075 223.321 29.8322 228.516 30.4339C230.741 30.6917 231.887 30.1569 233.214 28.4379C247.805 9.42327 267.21 0.178597 291.102 1.05722C297.424 1.28643 303.793 2.95773 309.933 4.69588C316.761 6.63459 319.444 12.6513 317.028 19.4129C311.939 33.6332 306.782 47.8345 301.53 61.988C300.718 64.1655 300.88 65.5025 302.599 67.2311C311.642 76.3421 319.091 86.6468 324.754 98.1645C325.804 100.294 326.998 101.01 329.376 101.001C335.315 100.982 341.36 100.676 347.166 101.679C358.491 103.618 366.761 113.684 366.866 125.201C367.038 144.741 367.067 164.281 366.866 183.821C366.732 197.067 355.913 207.716 342.63 208.107C337.989 208.241 333.329 208.002 328.698 208.251C327.494 208.317 325.795 209.301 325.26 210.342C316.274 227.934 303.994 242.718 288.266 254.684C287.215 255.486 286.385 257.119 286.203 258.456C284.427 271.674 282.832 284.911 281.142 298.138C280.34 304.422 276.205 308.185 269.797 308.213C255.98 308.28 242.162 308.28 228.344 308.213C221.755 308.185 217.639 304.422 216.808 297.937C216.025 291.806 215.242 285.665 214.431 279.276H154.9C154.108 285.379 153.296 291.481 152.542 297.584C151.692 304.403 147.71 308.175 140.968 308.204C127.15 308.271 113.332 308.271 99.5142 308.204C93.1353 308.175 88.9718 304.384 88.1696 298.119C86.489 284.892 84.8942 271.655 83.0989 258.447C82.908 257.014 81.9148 255.333 80.7689 254.445C54.5465 234.17 38.4655 207.754 32.6977 175.14C30.0144 159.974 30.3677 144.789 33.5094 129.69C33.7768 128.42 33.9678 127.13 34.216 125.679C33.3184 125.22 32.4972 124.8 31.6664 124.38C14.936 115.899 4.72779 102.548 1.58606 83.9441C1.49057 83.3902 1.17544 82.8745 0.955811 82.3397C0.955811 78.0516 0.955811 73.7635 0.955811 69.4754ZM293.06 22.5836C291.188 22.469 290.013 22.3162 288.839 22.3353C270.561 22.5167 256.6 30.3193 247.252 46.1059C243.499 52.4568 239.994 53.9276 232.756 52.8675C226.062 51.8934 219.282 51.0625 212.53 50.9765C194.071 50.7187 175.603 50.9288 157.144 50.8715C145.255 50.8428 133.72 52.7433 122.423 56.5062C76.3476 71.863 46.3437 120.092 53.3051 168.082C57.6596 198.146 72.2605 222.108 97.146 239.614C101.405 242.613 103.449 246.289 103.983 251.427C105.215 263.126 106.848 274.778 108.338 286.544H132.316C132.708 283.354 133.061 280.403 133.433 277.452C133.806 274.501 134.245 271.559 134.589 268.599C135.42 261.398 139.402 257.606 146.592 257.587C171.965 257.53 197.337 257.53 222.71 257.587C229.91 257.606 233.883 261.398 234.732 268.58C235.449 274.568 236.26 280.556 237.034 286.601H260.983C262.483 274.539 264.02 262.639 265.424 250.73C265.901 246.643 267.143 243.138 270.733 240.712C288.189 228.927 300.966 213.312 309.083 193.868C311.146 188.93 314.918 186.61 320.294 186.676C326.96 186.762 333.635 186.715 340.31 186.686C344.33 186.667 345.466 185.578 345.466 181.653C345.485 163.546 345.485 145.438 345.466 127.331C345.466 123.425 344.33 122.374 340.271 122.355C333.72 122.327 327.17 122.279 320.619 122.374C314.975 122.46 311.117 120.044 308.911 114.801C302.762 100.199 293.804 87.5637 281.915 77.0775C277.265 72.9804 276.32 68.2912 278.468 62.6183C281.495 54.6152 284.379 46.5452 287.301 38.5039C289.163 33.3945 290.987 28.2755 293.05 22.5549L293.06 22.5836Z" fill="white"/>
<path d="M159.274 148.112C160.339 148.112 160.996 148.112 161.653 148.112C168.691 148.112 175.729 148.093 182.768 148.122C186.338 148.136 188.794 150.068 189.188 153.044C189.699 156.892 187.102 159.732 182.948 159.747C174.635 159.781 166.322 159.757 158.009 159.757C157.294 159.757 156.575 159.757 155.684 159.757V166.581C156.463 166.615 157.163 166.674 157.859 166.674C166.171 166.678 174.484 166.659 182.797 166.688C186.275 166.698 188.707 168.556 189.179 171.445C189.801 175.268 187.213 178.274 183.128 178.308C176.576 178.367 170.024 178.323 163.472 178.328C162.207 178.328 160.938 178.328 159.313 178.328C159.761 179.169 160.047 179.792 160.407 180.371C170.744 197.06 193.294 200.863 208.596 188.533C209.569 187.75 210.663 186.962 211.831 186.611C214.506 185.809 217.201 187.093 218.451 189.486C219.73 191.943 219.161 194.803 216.928 196.719C211.106 201.71 204.452 205.071 196.912 206.54C175.627 210.679 155.524 199.822 147.109 179.661C146.691 178.654 146.209 178.265 145.12 178.304C142.94 178.381 140.752 178.352 138.568 178.318C134.783 178.265 132.278 175.92 132.288 172.496C132.298 169.067 134.788 166.766 138.607 166.693C140.348 166.659 142.089 166.688 143.899 166.688V159.684C141.593 159.684 139.356 159.849 137.147 159.64C134.555 159.397 132.58 157.198 132.327 154.698C132.05 151.926 133.402 149.547 135.922 148.613C136.753 148.307 137.692 148.205 138.587 148.18C140.708 148.122 142.833 148.107 144.954 148.18C146.063 148.219 146.632 147.913 147.109 146.804C153.437 131.993 164.488 122.775 180.316 119.803C193.07 117.41 204.749 120.401 215.104 128.291C217.959 130.47 218.509 133.977 216.529 136.633C214.52 139.328 210.96 139.683 207.983 137.484C192.228 125.864 170.953 129.619 160.578 145.86C160.193 146.463 159.863 147.096 159.274 148.112Z" fill="white"/>
<path d="M0.955811 69.4754C1.8057 66.1615 2.53145 62.8189 3.53412 59.5527C5.8737 51.9125 9.90351 45.2273 15.3371 39.3825C20.1977 34.1585 26.8535 33.4613 31.4754 37.6826C36.1164 41.9133 35.9922 48.5126 31.1698 53.8894C16.8745 69.8193 20.656 93.886 39.048 104.047C39.5637 104.334 40.1175 104.554 40.9961 104.955C41.4926 104.047 41.9987 103.178 42.4475 102.271C62.7589 61.0807 95.599 37.014 141.054 30.3575C146.449 29.5648 151.978 29.5171 157.45 29.4789C175.918 29.3738 194.377 29.3738 212.845 29.4789C218.078 29.5075 223.321 29.8322 228.516 30.4339C230.741 30.6917 231.887 30.1569 233.214 28.4379C247.805 9.42327 267.21 0.178597 291.102 1.05722C297.424 1.28643 303.793 2.95773 309.933 4.69588C316.761 6.63459 319.444 12.6513 317.028 19.4129C311.939 33.6332 306.782 47.8345 301.53 61.988C300.718 64.1655 300.88 65.5025 302.599 67.2311C311.642 76.3421 319.091 86.6468 324.754 98.1645C325.804 100.294 326.998 101.01 329.376 101.001C335.315 100.982 341.36 100.676 347.166 101.679C358.491 103.618 366.761 113.684 366.866 125.201C367.038 144.741 367.067 164.281 366.866 183.821C366.732 197.067 355.913 207.716 342.63 208.107C337.989 208.241 333.329 208.002 328.698 208.251C327.494 208.317 325.795 209.301 325.26 210.342C316.274 227.934 303.994 242.718 288.266 254.684C287.215 255.486 286.385 257.119 286.203 258.456C284.427 271.674 282.832 284.911 281.142 298.138C280.34 304.422 276.205 308.185 269.797 308.213C255.98 308.28 242.162 308.28 228.344 308.213C221.755 308.185 217.639 304.422 216.808 297.937C216.025 291.806 215.242 285.665 214.431 279.276H154.9C154.108 285.379 153.296 291.481 152.542 297.584C151.692 304.403 147.71 308.175 140.968 308.204C127.15 308.271 113.332 308.271 99.5142 308.204C93.1353 308.175 88.9718 304.384 88.1696 298.119C86.489 284.892 84.8942 271.655 83.0989 258.447C82.908 257.014 81.9148 255.333 80.7689 254.445C54.5465 234.17 38.4655 207.754 32.6977 175.14C30.0144 159.974 30.3677 144.789 33.5094 129.69C33.7768 128.42 33.9678 127.13 34.216 125.679C33.3184 125.22 32.4972 124.8 31.6664 124.38C14.936 115.899 4.72779 102.548 1.58606 83.9441C1.49057 83.3902 1.17544 82.8745 0.955811 82.3397C0.955811 78.0516 0.955811 73.7635 0.955811 69.4754ZM293.06 22.5836C291.188 22.469 290.013 22.3162 288.839 22.3353C270.561 22.5167 256.6 30.3193 247.252 46.1059C243.499 52.4568 239.994 53.9276 232.756 52.8675C226.062 51.8934 219.282 51.0625 212.53 50.9765C194.071 50.7187 175.603 50.9288 157.144 50.8715C145.255 50.8428 133.72 52.7433 122.423 56.5062C76.3476 71.863 46.3437 120.092 53.3051 168.082C57.6596 198.146 72.2605 222.108 97.146 239.614C101.405 242.613 103.449 246.289 103.983 251.427C105.215 263.126 106.848 274.778 108.338 286.544H132.316C132.708 283.354 133.061 280.403 133.433 277.452C133.806 274.501 134.245 271.559 134.589 268.599C135.42 261.398 139.402 257.606 146.592 257.587C171.965 257.53 197.337 257.53 222.71 257.587C229.91 257.606 233.883 261.398 234.732 268.58C235.449 274.568 236.26 280.556 237.034 286.601H260.983C262.483 274.539 264.02 262.639 265.424 250.73C265.901 246.643 267.143 243.138 270.733 240.712C288.189 228.927 300.966 213.312 309.083 193.868C311.146 188.93 314.918 186.61 320.294 186.676C326.96 186.762 333.635 186.715 340.31 186.686C344.33 186.667 345.466 185.578 345.466 181.653C345.485 163.546 345.485 145.438 345.466 127.331C345.466 123.425 344.33 122.374 340.271 122.355C333.72 122.327 327.17 122.279 320.619 122.374C314.975 122.46 311.117 120.044 308.911 114.801C302.762 100.199 293.804 87.5637 281.915 77.0775C277.265 72.9804 276.32 68.2912 278.468 62.6183C281.495 54.6152 284.379 46.5452 287.301 38.5039C289.163 33.3945 290.987 28.2755 293.05 22.5549L293.06 22.5836Z" stroke="white" stroke-width="1.99256" mask="url(#path-2-outside-1_46_68)"/>
<path d="M159.274 148.112C160.339 148.112 160.996 148.112 161.653 148.112C168.691 148.112 175.729 148.093 182.768 148.122C186.338 148.136 188.794 150.068 189.188 153.044C189.699 156.892 187.102 159.732 182.948 159.747C174.635 159.781 166.322 159.757 158.009 159.757C157.294 159.757 156.575 159.757 155.684 159.757V166.581C156.463 166.615 157.163 166.674 157.859 166.674C166.171 166.678 174.484 166.659 182.797 166.688C186.275 166.698 188.707 168.556 189.179 171.445C189.801 175.268 187.213 178.274 183.128 178.308C176.576 178.367 170.024 178.323 163.472 178.328C162.207 178.328 160.938 178.328 159.313 178.328C159.761 179.169 160.047 179.792 160.407 180.371C170.744 197.06 193.294 200.863 208.596 188.533C209.569 187.75 210.663 186.962 211.831 186.611C214.506 185.809 217.201 187.093 218.451 189.486C219.73 191.943 219.161 194.803 216.928 196.719C211.106 201.71 204.452 205.071 196.912 206.54C175.627 210.679 155.524 199.822 147.109 179.661C146.691 178.654 146.209 178.265 145.12 178.304C142.94 178.381 140.752 178.352 138.568 178.318C134.783 178.265 132.278 175.92 132.288 172.496C132.298 169.067 134.788 166.766 138.607 166.693C140.348 166.659 142.089 166.688 143.899 166.688V159.684C141.593 159.684 139.356 159.849 137.147 159.64C134.555 159.397 132.58 157.198 132.327 154.698C132.05 151.926 133.402 149.547 135.922 148.613C136.753 148.307 137.692 148.205 138.587 148.18C140.708 148.122 142.833 148.107 144.954 148.18C146.063 148.219 146.632 147.913 147.109 146.804C153.437 131.993 164.488 122.775 180.316 119.803C193.07 117.41 204.749 120.401 215.104 128.291C217.959 130.47 218.509 133.977 216.529 136.633C214.52 139.328 210.96 139.683 207.983 137.484C192.228 125.864 170.953 129.619 160.578 145.86C160.193 146.463 159.863 147.096 159.274 148.112Z" stroke="white" stroke-width="1.99256" mask="url(#path-2-outside-1_46_68)"/>
<path d="M152.995 73.4951H200.005" stroke="white" stroke-width="15" stroke-linecap="round"/>
</svg>
