<?xml version="1.0" encoding="utf-8"?>
<!-- Generator: Adobe Illustrator 20.0.0, SVG Export Plug-In . SVG Version: 6.00 Build 0)  -->
<svg version="1.1" id="Layer_1" xmlns="http://www.w3.org/2000/svg" xmlns:xlink="http://www.w3.org/1999/xlink" x="0px" y="0px"
	 viewBox="0 0 67.7 67.7" style="enable-background:new 0 0 67.7 67.7;" xml:space="preserve">
<style type="text/css">
	.st0{fill:#FFFFFF;}
</style>
<path class="st0" d="M37.5,6.4C29-2.1,15-2.1,6.4,6.4s-8.6,22.5,0,31.1c8.1,8.1,21,8.5,29.6,1.3l3.6,3.6c-1.6,1.6-1.6,4.1,0,5.7
	l18.4,18.4c1.6,1.6,4.1,1.6,5.7,0l2.8-2.8c1.6-1.6,1.6-4.1,0-5.7L48.2,39.7c-1.6-1.6-4.1-1.6-5.7,0l-3.6-3.6
	C46.1,27.4,45.6,14.5,37.5,6.4z M9.3,34.7c-7-7-7-18.4,0-25.5c7-7,18.4-7,25.5,0c7,7,7,18.4,0,25.5C27.7,41.7,16.3,41.7,9.3,34.7z"
	/>
</svg>
