<?xml version="1.0" encoding="utf-8"?>
<!-- Generator: Adobe Illustrator 20.0.0, SVG Export Plug-In . SVG Version: 6.00 Build 0)  -->
<svg version="1.1" id="Layer_1" xmlns="http://www.w3.org/2000/svg" xmlns:xlink="http://www.w3.org/1999/xlink" x="0px" y="0px"
	 viewBox="0 0 84.8 19.3" style="enable-background:new 0 0 84.8 19.3;" xml:space="preserve">
<style type="text/css">
	.st0{opacity:0.4;fill:#FFFFFF;}
	.st1{fill:#FFFFFF;}
</style>
<path class="st0" d="M20.7,0H4.6C3.1,0,1.5,1.2,1,2.8l0,0.1l0,0.1l-0.9,7.5C0,10.7,0,10.9,0,11.2c0,1.5,1.1,2.6,2.6,2.7L4.2,14
	c-0.2,0.7-0.6,1.4-1,2.1L1,19.3l3.5-1.6c1.2-0.5,3.4-1.7,4.8-3.3l7.6,0.6c0.1,0,0.2,0,0.2,0c1.5,0,2.8-1.1,3.4-2.9l2.9-8.7
	c0.1-0.3,0.1-0.6,0.1-0.8c0-0.8-0.2-1.4-0.7-1.9C22.2,0.3,21.5,0,20.7,0L20.7,0z"/>
<g>
	<path class="st1" d="M31.4,5.8c-0.1-0.4-0.2-0.7-0.4-0.9c-0.2-0.2-0.4-0.3-0.6-0.3l-0.1-0.2L30.4,3c0.3,0,0.6,0,0.9,0
		c0.3,0,0.5,0,0.8,0c0.3,0,0.5,0,0.8,0c0.4,0,0.8,0,1.2,0c0.4,0,0.8,0,1.1,0c0.4,0,0.7,0,1.1-0.1l0.1,0.2l-0.1,1.5
		c-0.3,0-0.5,0.1-0.6,0.1c-0.2,0-0.3,0.1-0.3,0.1c-0.1,0-0.1,0.1-0.1,0.2c0,0.1,0,0.2,0,0.3c0,0.1,0,0.3,0,0.5
		c0,0.2,0.1,0.5,0.1,0.8c0,0.3,0.1,0.7,0.2,1.1c0.1,0.4,0.1,0.8,0.2,1.1c0.1,0.9,0.3,1.9,0.5,2.9h0.4c0.3-1.1,0.5-2.2,0.7-3.1
		c0.1-0.4,0.2-0.8,0.3-1.2c0.1-0.4,0.2-0.8,0.2-1.1C37.9,6,38,5.7,38,5.4c0-0.2,0.1-0.4,0.1-0.5c0-0.2,0-0.3-0.1-0.3
		c-0.1,0-0.2-0.1-0.5-0.1H37l-0.1-0.2L37,3c0.3,0,0.6,0,1,0c0.3,0,0.6,0,0.9,0s0.6,0,0.9,0h1.5c0.3,0,0.5,0,0.7,0l-0.1,1.5
		c-0.2,0.1-0.4,0.2-0.4,0.3c-0.1,0.1-0.2,0.4-0.3,0.7l-2.7,9.1l-4.9,0.3c-0.3-1.4-0.6-2.6-0.9-3.8c-0.1-0.5-0.2-1-0.4-1.5
		C32.2,9,32,8.5,31.9,8c-0.1-0.5-0.2-0.9-0.3-1.3C31.5,6.4,31.5,6,31.4,5.8z"/>
	<path class="st1" d="M47.5,14.9c-1.8,0-3.1-0.5-4-1.5c-0.9-1-1.4-2.4-1.4-4.3c0-2,0.5-3.6,1.5-4.6c1-1.1,2.5-1.6,4.4-1.6
		c3.6,0,5.4,1.9,5.4,5.7c0,2-0.5,3.6-1.5,4.7S49.4,14.9,47.5,14.9z M47.9,12.6c0.5,0,0.9-0.2,1.1-0.7c0.2-0.4,0.3-1.2,0.3-2.3
		c0-0.8,0-1.5-0.1-2.1c-0.1-0.6-0.1-1-0.3-1.4c-0.1-0.3-0.3-0.6-0.5-0.7c-0.2-0.2-0.5-0.2-0.8-0.2c-0.5,0-0.9,0.2-1.1,0.7
		c-0.2,0.4-0.3,1.2-0.3,2.2c0,0.8,0,1.5,0.1,2.1c0.1,0.6,0.1,1,0.3,1.4c0.1,0.3,0.3,0.6,0.5,0.8C47.3,12.5,47.6,12.6,47.9,12.6z"/>
	<path class="st1" d="M63.6,14.7l-7.7-0.1l-1.5,0.2l-0.6-1l5.9-8.8l-1.4,0.2c-0.3,0.1-0.6,0.1-0.8,0.2c-0.2,0.1-0.4,0.2-0.5,0.3
		c-0.1,0.1-0.2,0.3-0.2,0.6c0,0.2-0.1,0.5-0.1,0.9l-2.3,0.2c0-0.5,0.1-1,0.1-1.5c0-0.4,0.1-0.9,0.1-1.4c0-0.5,0.1-1,0.1-1.4l0.2-0.2
		L58,3h6l0.4,1c-0.7,0.9-1.3,1.8-1.9,2.7c-0.6,0.9-1.2,1.7-1.7,2.5c-0.5,0.8-1,1.5-1.4,2.1c-0.4,0.6-0.7,1.1-1,1.5l1.9-0.3
		c0.3,0,0.5-0.1,0.7-0.3c0.2-0.1,0.4-0.3,0.5-0.5c0.1-0.2,0.3-0.4,0.3-0.7c0.1-0.3,0.1-0.7,0.2-1.1l2.3-0.2
		c-0.1,0.6-0.1,1.1-0.2,1.6c-0.1,0.5-0.1,1-0.1,1.5s-0.1,1-0.1,1.5L63.6,14.7z"/>
	<path class="st1" d="M69.5,11.5c0,0.2,0,0.4,0,0.6c0,0.1,0.1,0.2,0.1,0.3c0.1,0.1,0.1,0.1,0.3,0.2c0.1,0,0.3,0,0.5,0
		c0.4,0,0.7,0,1-0.1c0.2,0,0.4-0.1,0.6-0.3c0.2-0.1,0.3-0.3,0.3-0.6c0.1-0.2,0.1-0.6,0.2-1l2.3-0.2l0.2,0.3
		c-0.1,0.3-0.1,0.7-0.2,1.1c-0.1,0.3-0.1,0.7-0.2,1.2c-0.1,0.4-0.1,0.9-0.2,1.4l-0.3,0.3c-0.6,0-1.2,0-1.8-0.1c-0.6,0-1.2,0-1.9-0.1
		c-0.7,0-1.4,0-2.1,0c-0.5,0-0.9,0-1.4,0c-0.4,0-0.9,0-1.2,0.1c-0.4,0-0.8,0.1-1.2,0.1l0.2-1.7c0.5-0.1,0.8-0.2,0.9-0.4
		c0.2-0.2,0.2-0.6,0.2-1.1l0-6c0-0.4,0-0.6-0.1-0.8c-0.1-0.1-0.2-0.2-0.4-0.2c-0.1,0-0.1,0-0.2,0c0,0-0.1,0-0.1,0c0,0-0.1,0-0.2,0
		l-0.2-0.3L65,3c0.5,0,1,0,1.5,0c0.4,0,0.9,0,1.4,0s0.9,0,1.4,0c0.6,0,1.1,0,1.7,0c0.6,0,1.1,0,1.6,0c0.5,0,0.9,0,1.3-0.1
		c0.4,0,0.7-0.1,1-0.1l0.2,0.3c-0.1,0.4-0.1,0.8-0.2,1.2c0,0.3-0.1,0.7-0.1,1.2c0,0.4-0.1,0.8-0.1,1.3L72,6.8c0-0.1,0-0.2,0-0.3
		c0-0.1,0-0.1,0-0.2c0-0.1,0-0.1,0-0.2c0-0.2,0-0.4-0.1-0.5c0-0.1-0.1-0.2-0.3-0.3c-0.1-0.1-0.3-0.1-0.5-0.2c-0.2,0-0.5,0-0.9,0
		c-0.3,0-0.4,0-0.5,0.1c-0.1,0.1-0.1,0.2-0.1,0.4l-0.1,2c0.2,0,0.4,0,0.7,0c0.3,0,0.5,0,0.8,0c0.1,0,0.3,0,0.5,0c0.2,0,0.4,0,0.7,0
		c0.3,0,0.5,0,0.8-0.1l0.2,0.3L73,9.9c-0.3,0-0.5,0-0.8,0c-0.2,0-0.4,0-0.7,0c-0.3,0-0.5,0-0.7,0c-0.3,0-0.5,0-0.7,0
		c-0.2,0-0.4,0-0.6,0.1c0,0.3,0,0.6,0,0.8S69.5,11.3,69.5,11.5z"/>
	<path class="st1" d="M79.2,14.9c-0.5,0-1,0-1.4-0.1c-0.4-0.1-0.8-0.2-1.1-0.3c-0.4-0.1-0.7-0.3-1-0.4l-0.2-0.3
		c0.1-0.3,0.1-0.7,0.2-1c0-0.3,0.1-0.6,0.1-1s0.1-0.7,0.1-1l2.3-0.2c0,0.6,0.1,1.1,0.4,1.4c0.3,0.3,0.7,0.4,1.2,0.4
		c0.4,0,0.7-0.1,0.9-0.2c0.2-0.1,0.3-0.3,0.3-0.5c0-0.2-0.1-0.4-0.2-0.5c-0.1-0.2-0.3-0.3-0.6-0.4c-0.2-0.1-0.5-0.3-0.8-0.4
		c-0.3-0.1-0.6-0.3-0.9-0.4c-0.3-0.2-0.7-0.3-1-0.5c-0.3-0.2-0.6-0.4-0.9-0.7c-0.3-0.3-0.5-0.6-0.6-0.9c-0.2-0.3-0.2-0.8-0.2-1.2
		c0-0.6,0.1-1.1,0.4-1.6c0.3-0.5,0.6-0.9,1.1-1.2c0.5-0.3,1.1-0.6,1.8-0.8c0.7-0.2,1.4-0.3,2.3-0.3c0.5,0,1,0,1.4,0.1
		C82.9,3,83.2,3,83.6,3.1c0.4,0.1,0.7,0.2,1,0.3l0.2,0.4c-0.1,0.3-0.1,0.6-0.2,1c-0.1,0.3-0.1,0.6-0.2,1c0,0.4-0.1,0.8-0.1,1.2
		L82.2,7L82,6.8V6.6c0-0.8-0.4-1.3-1.3-1.3c-0.3,0-0.6,0.1-0.8,0.2c-0.2,0.1-0.3,0.3-0.3,0.6c0,0.2,0.1,0.3,0.2,0.5
		C79.8,6.7,80,6.9,80.2,7c0.2,0.1,0.4,0.2,0.7,0.4c0.3,0.1,0.6,0.2,0.9,0.4c0.4,0.2,0.7,0.3,1.1,0.5c0.4,0.2,0.7,0.4,1,0.7
		c0.3,0.3,0.5,0.6,0.7,0.9c0.2,0.4,0.3,0.8,0.3,1.3c0,0.6-0.1,1.1-0.4,1.6c-0.3,0.5-0.6,0.9-1.1,1.2c-0.5,0.3-1.1,0.6-1.8,0.7
		C80.9,14.8,80.1,14.9,79.2,14.9z"/>
</g>
</svg>
