<?xml version="1.0" encoding="utf-8"?>
<!-- Generator: Adobe Illustrator 23.0.0, SVG Export Plug-In . SVG Version: 6.00 Build 0)  -->
<svg version="1.1" id="Layer_1" xmlns="http://www.w3.org/2000/svg" xmlns:xlink="http://www.w3.org/1999/xlink" x="0px" y="0px"
	 viewBox="0 0 57 57" style="enable-background:new 0 0 57 57;" xml:space="preserve">
<style type="text/css">
	.st0{fill:#FFFFFF;}
</style>
<g>
	<path class="st0" d="M42.4,30c-0.1,0-0.2,0-0.3-0.1c-0.4-0.2-0.6-0.6-0.4-1c0.3-0.8,0.5-1.7,0.5-2.6c0-3.7-3-6.6-6.6-6.6
		c-2,0-3.8,0.9-5.1,2.4c-0.3,0.3-0.8,0.4-1.1,0.1c-0.3-0.3-0.4-0.8-0.1-1.1c1.6-1.9,3.9-2.9,6.3-2.9c4.5,0,8.2,3.7,8.2,8.2
		c0,1.1-0.2,2.2-0.6,3.2C43,29.8,42.7,30,42.4,30z"/>
	<path class="st0" d="M29.5,18.9c-0.2,0-0.4-0.1-0.6-0.3L26.5,16c-0.3-0.3-0.3-0.8,0.1-1.1c0.3-0.3,0.8-0.3,1.1,0.1l2.4,2.7
		c0.3,0.3,0.3,0.8-0.1,1.1C29.9,18.9,29.7,18.9,29.5,18.9z"/>
	<path class="st0" d="M37.5,16.6c-0.4,0-0.8-0.4-0.8-0.8v-3.1c0-0.4,0.4-0.8,0.8-0.8c0.4,0,0.8,0.4,0.8,0.8v3.1
		C38.3,16.3,37.9,16.6,37.5,16.6z"/>
	<path class="st0" d="M44,20.6c-0.2,0-0.4-0.1-0.6-0.2c-0.3-0.3-0.3-0.8,0-1.1l2.6-2.6c0.3-0.3,0.8-0.3,1.1,0s0.3,0.8,0,1.1
		l-2.6,2.6C44.4,20.5,44.2,20.6,44,20.6z"/>
	<path class="st0" d="M49.7,26.5h-4.1c-0.4,0-0.8-0.4-0.8-0.8s0.4-0.8,0.8-0.8h4.1c0.4,0,0.8,0.4,0.8,0.8S50.1,26.5,49.7,26.5z"/>
	<path class="st0" d="M36.3,45.1H14.8c-4.5,0-8.2-3.7-8.2-8.2s3.7-8.2,8.2-8.2c0.8,0,1.6,0.1,2.4,0.4c1.1-4,4.7-6.8,8.9-6.8
		c4.1,0,7.6,2.6,8.9,6.5c0.4-0.1,0.9-0.1,1.3-0.1c4.5,0,8.2,3.7,8.2,8.2C44.5,41.4,40.8,45.1,36.3,45.1z M14.8,30.2
		c-3.7,0-6.6,3-6.6,6.6c0,3.7,3,6.6,6.6,6.6h21.5c3.7,0,6.6-3,6.6-6.6c0-4.2-4-7.6-8.3-6.4c-0.2,0.1-0.4,0-0.6-0.1
		c-0.2-0.1-0.3-0.3-0.4-0.5c-0.8-3.5-3.9-6-7.5-6c-3.7,0-6.9,2.7-7.6,6.4c0,0.2-0.2,0.5-0.4,0.6c-0.2,0.1-0.5,0.1-0.7,0
		C16.6,30.4,15.7,30.2,14.8,30.2z"/>
</g>
</svg>
